<svg width="795" height="795" viewBox="0 0 795 795" fill="none" xmlns="http://www.w3.org/2000/svg">
<path fill-rule="evenodd" clip-rule="evenodd" d="M732.256 628.966L720.854 626.231C746.547 588.149 765.976 544.9 777.322 497.598C779.725 487.579 781.723 477.557 783.326 467.549L794.054 470.123C792.43 480.128 790.421 490.147 788.019 500.164C776.694 547.376 757.537 590.659 732.256 628.966ZM282.861 784.184L280.292 794.893C137.598 753.444 33.8309 639.266 0 502.938L12.0991 505.841C46.3779 635.854 146.236 744.301 282.861 784.184ZM684.911 123.327C633.148 69.8235 566.05 29.9287 488.297 11.278C292.972 -35.5748 96.751 67.5526 20.6875 246.446L31.5403 249.049C106.062 76.0646 296.329 -23.4574 485.731 21.9745C555.13 38.6214 615.805 72.6647 664.237 118.368L684.911 123.327ZM305.564 782.655C513.515 832.536 722.529 704.396 772.411 496.445C822.292 288.494 694.152 79.4792 486.201 29.5977C278.25 -20.2837 69.235 107.857 19.3536 315.808C-30.5278 523.759 97.6129 732.774 305.564 782.655ZM305.331 783.627C513.819 833.638 723.373 705.166 773.383 496.678C823.394 288.19 694.922 78.6356 486.434 28.6253C277.946 -21.3849 68.3915 107.087 18.3812 315.575C-31.6291 524.063 96.8426 733.617 305.331 783.627ZM315.772 738.921C499.54 783.001 684.248 669.762 728.328 485.994C772.409 302.226 659.17 117.518 475.402 73.4376C291.634 29.357 106.926 142.596 62.8455 326.364C18.7649 510.132 132.004 694.84 315.772 738.921ZM315.539 739.893C499.844 784.102 685.091 670.532 729.301 486.227C773.51 301.922 659.94 116.675 475.635 72.4652C291.33 28.2557 106.083 141.826 61.8731 326.131C17.6637 510.436 131.234 695.683 315.539 739.893Z" fill="#00FAFF" fill-opacity="0.55"/>
</svg>
