<svg width="382" height="387" viewBox="0 0 382 387" fill="none" xmlns="http://www.w3.org/2000/svg">
<path fill-rule="evenodd" clip-rule="evenodd" d="M7.60071 233.282L10.0849 231.653C14.6544 253.065 23.1912 274.007 35.9168 293.416C38.6071 297.52 41.4348 301.479 44.39 305.291L42.0125 306.85C81.6904 358.112 144.17 383.192 205.527 377.113L209.662 374.402C236.771 371.197 263.57 361.821 287.95 345.836C362.82 296.748 389.627 201.886 355.668 122.33L356.284 121.926C352.092 112.152 346.991 102.607 340.957 93.4044C323.305 66.4804 299.79 45.7118 273.199 31.6781L272.385 32.2116C218.41 4.10248 151.832 3.89502 96.2209 36.4921L95.2712 35.0436C92.3051 36.7614 89.3695 38.5712 86.4678 40.4737C20.9677 83.4185 -8.10231 161.059 7.60071 233.282ZM6.70515 233.869C-9.26551 161.147 19.9498 82.8901 85.9195 39.6374C88.8211 37.735 91.7564 35.9248 94.7221 34.206L90.1823 27.2819C151.104 -8.66388 224.539 -7.38787 282.837 25.359L274.153 31.052C300.689 45.1582 324.153 65.9502 341.794 92.8561C347.827 102.058 352.932 111.599 357.134 121.37L365.006 116.208C402.209 200.939 373.946 302.607 293.981 355.035C262.149 375.906 226.429 386.152 190.994 386.641L203.739 378.285C142.632 383.706 80.6583 358.458 41.1737 307.4L35.1633 311.34C32.2246 307.513 29.4064 303.549 26.7177 299.448C14.0453 280.12 5.29002 259.358 0.257433 238.097L6.70515 233.869ZM98.2991 58.2803C23.3077 107.448 2.37348 208.099 51.5413 283.09C100.709 358.082 201.36 379.016 276.351 329.848C351.343 280.68 372.277 180.03 323.109 105.038C273.941 30.0467 173.29 9.11255 98.2991 58.2803ZM97.7508 57.444C22.2975 106.915 1.23438 208.185 50.705 283.639C100.176 359.092 201.446 380.155 276.9 330.685C352.353 281.214 373.416 179.943 323.945 104.49C274.475 29.0366 173.204 7.97345 97.7508 57.444Z" fill="#00FAFF" fill-opacity="0.55"/>
</svg>
